<svg width="312" height="96" fill="none" xmlns="http://www.w3.org/2000/svg"><path fill="#096EFD" d="M0 0h312v95.791H0z"/><path d="M32.313 72H22.252l.063-7.427h9.998c2.497 0 4.602-.56 6.316-1.682 1.714-1.142 3.005-2.803 3.872-4.983.889-2.18 1.333-4.813 1.333-7.903v-2.253c0-2.37-.254-4.454-.762-6.253-.486-1.798-1.216-3.31-2.19-4.538a9.16 9.16 0 0 0-3.586-2.761c-1.418-.635-3.047-.952-4.888-.952H22.061v-7.459h10.347c3.09 0 5.914.529 8.474 1.587 2.582 1.037 4.814 2.528 6.697 4.475 1.883 1.947 3.333 4.274 4.348 6.983 1.037 2.687 1.555 5.68 1.555 8.981v2.19c0 3.28-.518 6.274-1.555 8.982-1.015 2.709-2.465 5.036-4.348 6.983-1.862 1.925-4.094 3.417-6.697 4.475C38.301 71.482 35.444 72 32.313 72Zm-4.666-46.21V72h-9.521V25.79h9.521Zm32.754 0h17.234c3.534 0 6.57.528 9.11 1.586 2.56 1.058 4.527 2.624 5.902 4.697 1.376 2.074 2.063 4.623 2.063 7.65 0 2.475-.423 4.601-1.27 6.379a11.937 11.937 0 0 1-3.522 4.411c-1.502 1.164-3.27 2.095-5.3 2.793l-3.015 1.587h-14.98l-.064-7.427h11.14c1.671 0 3.057-.296 4.157-.888 1.1-.593 1.926-1.418 2.476-2.476.571-1.058.857-2.285.857-3.682 0-1.48-.275-2.76-.825-3.84-.55-1.079-1.386-1.904-2.508-2.475-1.121-.572-2.528-.857-4.22-.857h-7.713V72H60.4V25.79ZM86.236 72 75.7 51.402l10.061-.064 10.664 20.218V72H86.236Zm41.324-46.21h9.489v30.53c0 3.555-.761 6.549-2.285 8.982-1.502 2.434-3.586 4.264-6.252 5.49-2.645 1.228-5.692 1.842-9.141 1.842s-6.517-.614-9.204-1.841c-2.666-1.227-4.761-3.057-6.284-5.49-1.502-2.434-2.254-5.428-2.254-8.983V25.79h9.522v30.532c0 2.074.328 3.767.984 5.078.656 1.312 1.597 2.275 2.824 2.889 1.249.613 2.719.92 4.412.92 1.735 0 3.206-.307 4.412-.92 1.227-.614 2.158-1.577 2.793-2.889.656-1.311.984-3.004.984-5.078V25.79Zm35.324 29.738h-11.775V48.1h11.775c1.82 0 3.301-.296 4.444-.889 1.142-.613 1.978-1.46 2.507-2.539.529-1.079.793-2.295.793-3.65 0-1.375-.264-2.655-.793-3.84s-1.365-2.137-2.507-2.856c-1.143-.72-2.624-1.08-4.444-1.08h-8.474V72h-9.521V25.79h17.995c3.618 0 6.718.655 9.3 1.967 2.602 1.29 4.591 3.078 5.966 5.364 1.376 2.285 2.063 4.898 2.063 7.839 0 2.983-.687 5.565-2.063 7.744-1.375 2.18-3.364 3.862-5.966 5.047-2.582 1.184-5.682 1.777-9.3 1.777Zm37.42-21.836L187.735 72h-10.124l17.17-46.21h6.443l-.92 7.902ZM210.746 72l-12.6-38.308-1.016-7.903h6.506L220.902 72h-10.156Zm-.572-17.202v7.458h-24.406v-7.458h24.406Zm44.72 9.775V72h-23.265v-7.427h23.265ZM234.708 25.79V72h-9.521V25.79h9.521Z" fill="#fff"/><path d="m268.192 25.79 8.696 16.122 8.696-16.123h10.887l-13.426 22.915L296.82 72h-10.982l-8.95-16.44-8.95 16.44h-11.045l13.806-23.296-13.457-22.915h10.95Z" fill="#000"/></svg>