<svg width="486" height="155" fill="none" xmlns="http://www.w3.org/2000/svg"><path fill="#0D6EFD" d="M0 0h486v155H0z"/><path d="M59.047 110h-14.86l.094-10.969h14.766c3.687 0 6.797-.828 9.328-2.484 2.531-1.688 4.438-4.14 5.719-7.36 1.312-3.218 1.969-7.109 1.969-11.671v-3.329c0-3.5-.376-6.578-1.126-9.234-.718-2.656-1.796-4.89-3.234-6.703a13.527 13.527 0 0 0-5.297-4.078c-2.094-.938-4.5-1.406-7.219-1.406h-15.28V41.75h15.28c4.563 0 8.735.781 12.516 2.344 3.813 1.531 7.11 3.734 9.89 6.61 2.782 2.874 4.923 6.312 6.423 10.312 1.53 3.968 2.296 8.39 2.296 13.265v3.235c0 4.843-.765 9.265-2.296 13.265-1.5 4-3.641 7.438-6.422 10.313-2.75 2.844-6.047 5.047-9.89 6.609C67.89 109.234 63.671 110 59.046 110Zm-6.89-68.25V110H38.093V41.75h14.062Zm48.374 0h25.453c5.219 0 9.704.781 13.454 2.344 3.781 1.562 6.687 3.875 8.718 6.937 2.032 3.063 3.047 6.828 3.047 11.297 0 3.656-.625 6.797-1.875 9.422a17.646 17.646 0 0 1-5.203 6.516c-2.219 1.718-4.828 3.093-7.828 4.125l-4.453 2.343h-22.125l-.094-10.968h16.453c2.469 0 4.516-.438 6.141-1.313s2.843-2.094 3.656-3.656c.844-1.563 1.266-3.375 1.266-5.438 0-2.187-.407-4.078-1.219-5.672-.813-1.593-2.047-2.812-3.703-3.656-1.657-.843-3.735-1.265-6.235-1.265h-11.39V110h-14.063V41.75ZM138.688 110l-15.563-30.422 14.859-.094 15.75 29.86V110h-15.046Zm61.031-68.25h14.015v45.094c0 5.25-1.125 9.672-3.375 13.265-2.218 3.594-5.297 6.297-9.234 8.11-3.906 1.812-8.406 2.719-13.5 2.719-5.094 0-9.625-.907-13.594-2.719-3.937-1.813-7.031-4.516-9.281-8.11-2.219-3.593-3.328-8.015-3.328-13.265V41.75h14.062v45.094c0 3.062.485 5.562 1.454 7.5.968 1.937 2.359 3.36 4.171 4.265 1.844.907 4.016 1.36 6.516 1.36 2.563 0 4.734-.453 6.516-1.36 1.812-.906 3.187-2.328 4.125-4.265.968-1.938 1.453-4.438 1.453-7.5V41.75Zm52.172 43.922H234.5V74.703h17.391c2.687 0 4.875-.437 6.562-1.312 1.688-.907 2.922-2.157 3.703-3.75.782-1.594 1.172-3.391 1.172-5.391 0-2.031-.39-3.922-1.172-5.672-.781-1.75-2.015-3.156-3.703-4.219-1.687-1.062-3.875-1.593-6.562-1.593h-12.516V110h-14.063V41.75h26.579c5.343 0 9.921.969 13.734 2.906 3.844 1.907 6.781 4.547 8.813 7.922 2.031 3.375 3.046 7.234 3.046 11.578 0 4.406-1.015 8.219-3.046 11.438-2.032 3.219-4.969 5.703-8.813 7.453-3.813 1.75-8.391 2.625-13.734 2.625Zm55.265-32.25L288.594 110h-14.953L299 41.75h9.516l-1.36 11.672ZM322.578 110l-18.609-56.578-1.5-11.672h9.609l25.5 68.25h-15Zm-.844-25.406v11.015h-36.046V84.594h36.046Zm66.047 14.437V110h-34.359V99.031h34.359ZM357.969 41.75V110h-14.063V41.75h14.063Z" fill="#fff"/><path d="m407.422 41.75 12.844 23.813 12.843-23.813h16.079l-19.829 33.844L449.703 110h-16.219l-13.218-24.281L407.047 110h-16.313l20.391-34.406L391.25 41.75h16.172Z" fill="#000"/></svg>