<svg width="83" height="83" viewBox="0 0 83 83" fill="none" xmlns="http://www.w3.org/2000/svg">
<path d="M41.4961 0.250488C18.7261 0.250488 0.246094 18.7305 0.246094 41.5005C0.246094 64.2705 18.7261 82.7505 41.4961 82.7505C64.2661 82.7505 82.7461 64.2705 82.7461 41.5005C82.7461 18.7305 64.2661 0.250488 41.4961 0.250488ZM41.4961 74.5005C23.3048 74.5005 8.49609 59.6917 8.49609 41.5005C8.49609 23.3092 23.3048 8.50049 41.4961 8.50049C59.6873 8.50049 74.4961 23.3092 74.4961 41.5005C74.4961 59.6917 59.6873 74.5005 41.4961 74.5005ZM60.4298 23.268L33.2461 50.4517L22.5623 39.8092L16.7461 45.6255L33.2461 62.1255L66.2461 29.1255L60.4298 23.268Z" fill="#0069F6"/>
</svg>
